Coordinates
version=1
nRows=7
nColumns=46
inDegrees=yes

Units are S.I. units (second, meters, Newtons, ...)
Angles are in degrees.

endheader
time	pelvis_tilt	pelvis_list	pelvis_rotation	pelvis_tx	pelvis_ty	pelvis_tz	bb_angle	bb_tx	bb_ty	bb_tz	hip_flexion_r	hip_adduction_r	hip_rotation_r	knee_angle_r	knee_angle_r_beta	ankle_angle_r	subtalar_angle_r	mtp_angle_r	crank_angle_r	hip_flexion_l	hip_adduction_l	hip_rotation_l	knee_angle_l	knee_angle_l_beta	ankle_angle_l	subtalar_angle_l	mtp_angle_l	crank_angle_l	lumbar_extension	lumbar_bending	lumbar_rotation	arm_flex_r	arm_add_r	arm_rot_r	elbow_flex_r	pro_sup_r	wrist_flex_r	wrist_dev_r	arm_flex_l	arm_add_l	arm_rot_l	elbow_flex_l	pro_sup_l	wrist_flex_l	wrist_dev_l
      0.00500000	    -23.77907928	     -7.17450269	     -6.82933688	      0.16581286	      1.12258734	     -0.22295770	      0.00000000	      0.50000000	      0.00000000	      0.25000000	     84.46387171	      2.50180714	     -2.03895313	    105.21346101	      1.83632131	     28.38466967	     -1.67778944	      0.00000000	      0.00000000	     38.42779948	    -14.00763571	     -2.45051939	     11.61491663	      0.20271854	    -13.91694386	      3.92102893	      0.00000000	      0.00000000	    -47.01824018	      3.51148967	      8.56545157	     87.46488070	     -8.90594536	     42.10789672	     36.72399336	     41.37386539	      0.00000000	      0.00000000	     87.61188725	    -14.90268476	     47.44860358	     35.29112609	     41.83031990	      0.00000000	      0.00000000
      0.01000000	    -23.81859559	     -7.27999577	     -6.80141787	      0.16570204	      1.12257870	     -0.22296389	      0.00000000	      0.50000000	      0.00000000	      0.25000000	     84.57060169	      2.53524254	     -2.16049615	    105.19469492	      1.83599378	     28.29574762	     -1.89672982	      0.00000000	      0.00000000	     38.46279169	    -14.10557852	     -2.48982519	     11.66752518	      0.20363673	    -13.84412124	      4.14974244	      0.00000000	      0.00000000	    -47.01764907	      3.59832076	      8.68103478	     87.53292441	     -9.27370079	     42.72211123	     36.92384296	     41.85346466	      0.00000000	      0.00000000	     87.76611559	    -15.03544145	     48.18494360	     35.37200050	     42.27605702	      0.00000000	      0.00000000
      0.01500000	    -23.84930408	     -7.27379798	     -6.79101219	      0.16553990	      1.12256765	     -0.22299102	      0.00000000	      0.50000000	      0.00000000	      0.25000000	     84.68581160	      2.51594563	     -2.17408297	    105.14070357	      1.83505146	     28.30784871	     -1.97505683	      0.00000000	      0.00000000	     38.43990854	    -14.09029901	     -2.46991567	     11.63485247	      0.20306648	    -13.89165393	      4.13978665	      0.00000000	      0.00000000	    -46.99586773	      3.60124337	      8.68364589	     87.56112013	     -9.31271643	     42.66541465	     36.88475895	     42.25601470	      0.00000000	      0.00000000	     87.74722659	    -14.99245508	     48.03459951	     35.36453726	     42.66299245	      0.00000000	      0.00000000
      0.02000000	    -23.96262184	     -7.26975596	     -6.90180542	      0.16555202	      1.12254919	     -0.22283793	      0.00000000	      0.50000000	      0.00000000	      0.25000000	     84.87282503	      2.64014759	     -2.13082599	    105.16922952	      1.83554933	     28.29217786	     -1.92531253	      0.00000000	      0.00000000	     39.08453377	    -14.50833833	     -3.79594635	     12.82166539	      0.22378028	    -12.94660477	      5.84411203	      0.00000000	      0.00000000	    -46.90897708	      3.52584797	      8.68291856	     87.55800550	     -9.09982868	     42.49456089	     36.75661263	     42.44701478	      0.00000000	      0.00000000	     87.70829301	    -15.64882542	     48.99256015	     36.36894147	     43.11358560	      0.00000000	      0.00000000
      0.02500000	    -24.08632180	     -7.39484037	     -6.90643358	      0.16511172	      1.12266408	     -0.22272786	      0.00000000	      0.50000000	      0.00000000	      0.25000000	     85.12551973	      2.81223839	     -2.30992295	    105.28907124	      1.83764096	     28.95274379	     -0.26072273	      0.00000000	      0.00000000	     39.10873978	    -14.72471609	     -3.65035955	     12.74693191	      0.22247593	    -12.79318991	      6.29818986	      0.00000000	      0.00000000	    -46.83744905	      3.55963809	      8.85009250	     87.49371461	     -9.29083310	     42.31312504	     36.73333728	     42.43816929	      0.00000000	      0.00000000	     87.76444223	    -15.89813022	     49.09014638	     36.70367848	     43.19132917	      0.00000000	      0.00000000
      0.03000000	    -23.95522451	     -7.29904772	     -6.81015783	      0.16527582	      1.12256884	     -0.22297945	      0.00000000	      0.50000000	      0.00000000	      0.25000000	     85.07355096	      2.58426795	     -2.16348967	    105.18612151	      1.83584415	     28.27188209	     -1.50353999	      0.00000000	      0.00000000	     38.78258252	    -14.34150098	     -3.41254195	     12.38645528	      0.21618443	    -13.32401818	      5.33650163	      0.00000000	      0.00000000	    -46.98504154	      3.55569195	      8.66809902	     87.60788998	     -9.46981767	     42.55383196	     36.98947519	     42.55900022	      0.00000000	      0.00000000	     87.82143977	    -15.54865181	     49.00410271	     36.43433028	     43.15947499	      0.00000000	      0.00000000
      0.03500000	    -23.87672411	     -7.29340564	     -6.74606261	      0.16535287	      1.12276605	     -0.22318378	      0.00000000	      0.50000000	      0.00000000	      0.25000000	     85.04279648	      2.47153881	     -2.14840975	    105.14290679	      1.83508991	     28.33017980	     -1.24001431	      0.00000000	      0.00000000	     38.56915504	    -14.25479048	     -3.39199463	     12.18165752	      0.21261003	    -13.62063850	      5.43766256	      0.00000000	      0.00000000	    -47.09614655	      3.57973807	      8.68830520	     87.56627311	     -9.59818463	     42.39983513	     37.13893546	     42.62608692	      0.00000000	      0.00000000	     87.79087581	    -15.38703999	     48.63225918	     36.48313873	     43.15587832	      0.00000000	      0.00000000
